<svg viewBox="0 0 96 96" xmlns="http://www.w3.org/2000/svg" xmlns:xlink="http://www.w3.org/1999/xlink" id="Icons_Earth" overflow="hidden"><style>
.MsftOfcThm_Background1_Fill_v2 {
 fill:#FFFFFF; 
}
</style>
<path d="M48.006 14C29.2283 14 14.006 29.2223 14.006 48 14.006 66.7777 29.2283 82 48.006 82 66.7837 82 82.006 66.7777 82.006 48 81.9851 29.231 66.775 14.0209 48.006 14ZM73.963 32.987C75.0664 34.8833 75.9575 36.8954 76.62 38.987L66.135 38.987C64.4781 38.987 63.135 37.6439 63.135 35.987 63.135 34.3301 64.4781 32.987 66.135 32.987ZM42.754 27C44.4109 27 45.754 28.3431 45.754 30 45.754 31.6569 44.4109 33 42.754 33L35.5 33C33.8431 33 32.5 34.3431 32.5 36 32.5 37.6569 33.8431 39 35.5 39L53.5 39C55.1569 39 56.5 40.3431 56.5 42 56.5 43.6569 55.1569 45 53.5 45L18.156 45C18.8388 38.2115 21.8217 31.8603 26.61 27ZM31.135 57C32.7919 57 34.135 58.3431 34.135 60 34.135 61.6569 32.7919 63 31.135 63L22.041 63C20.9385 61.1036 20.0485 59.0915 19.387 57ZM46.5 69C44.8431 69 43.5 67.6569 43.5 66 43.5 64.3431 44.8431 63 46.5 63L64.5 63C66.1569 63 67.5 61.6569 67.5 60 67.5 58.3431 66.1569 57 64.5 57L62.25 57C60.5931 57 59.25 55.6569 59.25 54 59.25 52.3431 60.5931 51 62.25 51L77.85 51C77.168 57.7879 74.1866 64.1389 69.4 69Z" class="MsftOfcThm_Background1_Fill_v2" stroke="none" stroke-width="1" stroke-linecap="butt" stroke-linejoin="miter" stroke-miterlimit="4" fill="#FFFFFF" fill-opacity="0.65"/></svg>