<svg viewBox="0 0 96 96" xmlns="http://www.w3.org/2000/svg" xmlns:xlink="http://www.w3.org/1999/xlink" id="Icons_PresentationChecklist_RTL" overflow="hidden"><style>
.MsftOfcThm_Background1_Fill_v2 {
 fill:#FFFFFF; 
}
</style>
<path d="M76 22 76 58 20 58 20 22ZM10 62C10 63.1046 10.8954 64 12 64L42.54 64 27.17 79.37C26.3885 80.1515 26.3885 81.4185 27.17 82.2 27.9515 82.9815 29.2185 82.9815 30 82.2L46 66.2 46 84C46 85.1046 46.8954 86 48 86 49.1046 86 50 85.1046 50 84L50 66.23 66 82.23C66.7815 83.0198 68.0552 83.0265 68.845 82.245 69.6348 81.4635 69.6415 80.1898 68.86 79.4L53.46 64 84 64C85.1046 64 86 63.1046 86 62 86 60.8954 85.1046 60 84 60L82 60 82 19 84 19C85.1046 19 86 18.1046 86 17 86 15.8954 85.1046 15 84 15L50 15 50 13C50 11.8954 49.1046 11 48 11 46.8954 11 46 11.8954 46 13L46 15 12 15C10.8954 15 10 15.8954 10 17 10 18.1046 10.8954 19 12 19L14 19 14 60 12 60C10.8954 60 10 60.8954 10 62Z" class="MsftOfcThm_Background1_Fill_v2" stroke="none" stroke-width="1" stroke-linecap="butt" stroke-linejoin="miter" stroke-miterlimit="4" fill="#FFFFFF" fill-opacity="0.65"/><rect x="30" y="31" width="17" height="4" class="MsftOfcThm_Background1_Fill_v2" stroke="none" stroke-width="1" stroke-linecap="butt" stroke-linejoin="miter" stroke-miterlimit="4" fill="#FFFFFF" fill-opacity="0.65"/><path d="M68 29.6 65.2 26.8 58.6 33.4 56 30.8 53.2 33.6 58.6 39 68 29.6Z" class="MsftOfcThm_Background1_Fill_v2" stroke="none" stroke-width="1" stroke-linecap="butt" stroke-linejoin="miter" stroke-miterlimit="4" fill="#FFFFFF" fill-opacity="0.65"/><rect x="30" y="44" width="17" height="4" class="MsftOfcThm_Background1_Fill_v2" stroke="none" stroke-width="1" stroke-linecap="butt" stroke-linejoin="miter" stroke-miterlimit="4" fill="#FFFFFF" fill-opacity="0.65"/><path d="M68 42.6 65.2 39.8 58.6 46.4 56 43.8 53.2 46.6 58.6 52 68 42.6Z" class="MsftOfcThm_Background1_Fill_v2" stroke="none" stroke-width="1" stroke-linecap="butt" stroke-linejoin="miter" stroke-miterlimit="4" fill="#FFFFFF" fill-opacity="0.65"/></svg>